<?xml version="1.0" encoding="UTF-8"?>
<svg id="Layer_2" data-name="Layer 2" xmlns="http://www.w3.org/2000/svg" viewBox="0 0 250.34 317">
  <defs>
    <style>
      .cls-1 {
        fill: #2d2d2d;
      }
    </style>
  </defs>
  <g id="Layer_1-2" data-name="Layer 1">
    <g>
      <path class="cls-1" d="M212.95,105.84c3.65-4.71,9.37-7.07,17.15-7.07h7.07v-5.3h-82.76v5.3h6.9c4.48,0,8.84,1.18,13.09,3.54,2.94,1.65,4.89,3.66,5.84,6.01,.53,1.45,.95,3.58,1.24,6.4-1.83,13.73-5.19,22.96-10.11,27.64-5.09,4.85-13.22,7.27-24.37,7.27h-48.25V45.6h58.44c13.74,0,23.92,1.3,30.55,3.88,6.63,2.59,12.16,6.79,16.61,12.61,4.44,5.82,8.36,14.87,11.76,27.16h6.79l-2.43-58.2H23.58v7.27h9.21c6.46,0,12.45,1.62,17.94,4.85,4.04,2.27,6.71,5.01,8,8.24,1.78,4.36,2.67,13.26,2.67,26.67V249.04c0,15.84-1.62,25.87-4.85,30.07-4.85,6.3-12.77,9.46-23.76,9.46h-9.21v7.27h113.48v-7.27h-9.46c-6.3,0-12.29-1.53-17.94-4.61-4.21-2.42-6.95-5.25-8.24-8.49-1.78-4.2-2.67-13.01-2.67-26.43v-83.17h48.25c8.89,0,15.56,1.21,20,3.64,4.44,2.42,7.96,6.02,10.55,10.79,2.58,4.77,3.96,12.33,4.12,22.67h.34v49.46c0,11.55-1.12,18.86-3.36,21.93-3.66,4.6-9.43,6.9-17.33,6.9h-6.9v5.31h82.76v-5.31h-7.07c-4.48,0-8.78-1.12-12.91-3.36-3.07-1.77-5.07-3.83-6.01-6.19-1.18-3.06-1.77-9.49-1.77-19.27V127.77c0-11.67,1.18-18.98,3.54-21.93Z"/>
      <polygon class="cls-1" points="250.34 39.37 246.02 5.05 202.18 0 250.34 0 250.34 39.37"/>
      <polygon class="cls-1" points="0 277.63 4.33 311.95 48.16 317 0 317 0 277.63"/>
    </g>
  </g>
</svg>